<?xml version="1.0" standalone="no"?><!DOCTYPE svg PUBLIC "-//W3C//DTD SVG 1.1//EN" "http://www.w3.org/Graphics/SVG/1.1/DTD/svg11.dtd"><svg t="1516864151638" class="icon" style="" viewBox="0 0 1024 1024" version="1.1" xmlns="http://www.w3.org/2000/svg" p-id="1947" xmlns:xlink="http://www.w3.org/1999/xlink" width="200" height="200"><defs><style type="text/css"></style></defs><path d="M902.4 121.6c-25.6-25.6-64-25.6-89.6 0l-108.8 108.8c-57.6-19.2-121.6-32-192-32-294.4 6.4-512 211.2-512 313.6 0 57.6 76.8 153.6 198.4 224l-76.8 76.8c-25.6 25.6-25.6 64 0 89.6 12.8 12.8 32 19.2 44.8 19.2s32-6.4 44.8-19.2l691.2-691.2c25.6-25.6 25.6-64 0-89.6zM268.8 512c0-140.8 108.8-249.6 249.6-249.6 44.8 0 89.6 12.8 121.6 38.4l-339.2 332.8c-19.2-38.4-32-76.8-32-121.6zM902.4 332.8l-147.2 147.2c0 12.8 0 19.2 0 32 0 140.8-108.8 249.6-249.6 249.6-12.8 0-25.6 0-32-6.4l-51.2 51.2c25.6 6.4 57.6 6.4 89.6 6.4 300.8 0 512-211.2 512-307.2 0-38.4-44.8-108.8-121.6-172.8z" p-id="1948" fill="#A2A2A2"></path></svg>