<?xml version="1.0" standalone="no"?><!DOCTYPE svg PUBLIC "-//W3C//DTD SVG 1.1//EN" "http://www.w3.org/Graphics/SVG/1.1/DTD/svg11.dtd"><svg t="1516780508305" class="icon" style="" viewBox="0 0 1024 1024" version="1.1" xmlns="http://www.w3.org/2000/svg" p-id="3842" xmlns:xlink="http://www.w3.org/1999/xlink" width="200" height="200"><defs><style type="text/css"></style></defs><path d="M951.367261 605.782943l-113.160269-63.359027c-2.740414-1.540076-5.587252-2.417049-8.399297-2.829442 0.824785-9.509585 1.451048-19.072381 1.451048-28.795836 0-9.312086-0.626263-18.481933-1.396813-27.596522 2.740414-0.448208 5.51562-1.200338 8.165983-2.704598l112.784716-64.039525c7.521301-4.26207 10.422374-15.240099 6.643304-24.641213l-40.096207-99.998505c-3.778046-9.402137-13.46671-15.364943-21.848611-13.251815L769.744737 310.211181c-2.00568 0.50142-3.814886 1.27197-5.51562 2.184759-13.860682-18.266016-29.477358-35.063587-46.77635-50.052976 0.555655-1.25355 1.092891-2.524496 1.469468-3.903913l33.989115-125.141138c2.27481-8.362458-3.474125-18.141172-12.821003-22.098297l-99.210559-41.957601c-9.347902-3.958148-20.379143-1.27197-24.801872 6.1777L550.65795 185.804776c-15.812127-2.328022-31.874965-3.939729-48.332798-3.939729-8.953929 0-17.764596 0.644683-26.539446 1.343601L412.910703 74.237795c-4.333702-7.503904-15.329127-10.314926-24.712845-6.482645L288.504298 108.549252c-9.383718 3.850701-15.275915 13.574157-13.109576 21.955034l30.318516 117.046786c-23.638373 17.674545-44.805462 38.358633-62.910818 61.657268l-115.774817-28.401864c-8.399297-2.077312-18.069541 3.939729-21.794375 13.377682l-39.486316 100.213399c-3.724835 9.437953-0.787946 20.397562 6.769171 24.623817l102.666264 57.484226c-1.163499 11.281951-1.790786 22.707165-1.790786 34.294061 0 13.269211 1.00284 26.288736 2.542916 39.146579l-102.863762 58.379619c-7.521301 4.28049-10.422374 15.275915-6.643304 24.677029l40.113603 99.998505c3.76065 9.402137 13.430894 15.347546 21.830191 13.251815l117.601418-29.602202c16.761756 20.827351 36.084846 39.415708 57.376779 55.621808l-32.395828 119.239731c-2.27481 8.345062 3.492544 18.158568 12.840446 22.099321l99.210559 41.97602c9.347902 3.940752 20.360723 1.254573 24.784476-6.196119l65.847707-111.100354c9.473769 0.823761 18.999726 1.431605 28.688389 1.431605 14.70184 0 29.063943-1.289366 43.24799-3.151783 0.26913 0.537236 0.25071 1.146103 0.574075 1.684362l64.809051 112.319112c4.332678 7.521301 15.346523 10.314926 24.730241 6.482645l99.69356-40.794102c9.384741-3.832282 15.257495-13.538341 13.109576-21.955034L715.94953 768.781294c-0.554632-2.167363-1.450025-4.101411-2.471284-5.909593 18.696828-15.669888 35.404348-33.524534 50.213635-52.93563 2.149966 1.360997 4.5312 2.489704 7.234775 3.151783l125.929084 30.908964c8.417717 2.077312 18.052145-3.921309 21.775956-13.359262l39.504736-100.213399C961.861266 620.986203 958.924377 610.008174 951.367261 605.782943zM502.325152 767.760035c-141.902894 0-256.944-115.041106-256.944-256.961396 0-141.902894 115.041106-256.944 256.944-256.944 141.92029 0 256.961396 115.040083 256.961396 256.944C759.286548 652.718929 644.245442 767.760035 502.325152 767.760035z" p-id="3843" fill="#A2A2A2"></path><path d="M502.325152 383.436926c-71.560826 0-129.582287 58.021461-129.582287 129.582287 0 71.578222 58.021461 129.599683 129.582287 129.599683 71.578222 0 129.599683-58.021461 129.599683-129.599683C631.924835 441.458387 573.903374 383.436926 502.325152 383.436926zM502.325152 584.077595c-39.23663 0-71.058382-31.822776-71.058382-71.058382 0-39.23663 31.822776-71.058382 71.058382-71.058382s71.058382 31.822776 71.058382 71.058382C573.383534 552.254819 541.561781 584.077595 502.325152 584.077595z" p-id="3844" fill="#A2A2A2"></path></svg>