<?xml version="1.0" standalone="no"?><!DOCTYPE svg PUBLIC "-//W3C//DTD SVG 1.1//EN" "http://www.w3.org/Graphics/SVG/1.1/DTD/svg11.dtd"><svg t="1516855726144" class="icon" style="" viewBox="0 0 1024 1024" version="1.1" xmlns="http://www.w3.org/2000/svg" p-id="1893" xmlns:xlink="http://www.w3.org/1999/xlink" width="200" height="200"><defs><style type="text/css"></style></defs><path d="M877.216 491.808M575.328 510.496 946.784 140.672c17.568-17.504 17.664-45.824 0.192-63.424-17.504-17.632-45.792-17.664-63.36-0.192L512.032 446.944 143.712 77.216C126.304 59.712 97.92 59.648 80.384 77.12 62.848 94.624 62.816 123.008 80.288 140.576l368.224 369.632L77.216 879.808c-17.568 17.504-17.664 45.824-0.192 63.424 8.736 8.8 20.256 13.216 31.776 13.216 11.424 0 22.848-4.352 31.584-13.056l371.36-369.696 371.68 373.088C892.192 955.616 903.68 960 915.168 960c11.456 0 22.912-4.384 31.648-13.088 17.504-17.504 17.568-45.824 0.096-63.392L575.328 510.496 575.328 510.496zM575.328 510.496" p-id="1894" fill="#A2A2A2"></path></svg>