<?xml version="1.0" standalone="no"?><!DOCTYPE svg PUBLIC "-//W3C//DTD SVG 1.1//EN" "http://www.w3.org/Graphics/SVG/1.1/DTD/svg11.dtd"><svg t="1527126002647" class="icon" style="" viewBox="0 0 1024 1024" version="1.1" xmlns="http://www.w3.org/2000/svg" p-id="1914" xmlns:xlink="http://www.w3.org/1999/xlink" width="200" height="200"><defs><style type="text/css"></style></defs><path d="M855.301431 429.483461h-75.797919V259.050754a267.811126 267.811126 0 0 0-535.294654 0v170.432707H168.492837A65.028145 65.028145 0 0 0 102.4 493.405964v466.581034A65.069095 65.069095 0 0 0 168.492837 1023.991401h686.849544A64.987195 64.987195 0 0 0 921.394269 959.986998V493.405964a64.987195 64.987195 0 0 0-66.092838-63.922503z m-306.262907 309.375085v101.882887a8.59944 8.59944 0 0 1-8.681339 8.394691H483.559933a8.64039 8.64039 0 0 1-8.763239-8.394691v-101.882887a79.114846 79.114846 0 0 1-45.044685-70.679205 82.308924 82.308924 0 0 1 164.535949 0 78.910098 78.910098 0 0 1-45.044685 70.679205z m127.763106-309.375085H347.033588V263.268574a164.986395 164.986395 0 0 1 329.768042 0v166.214887z" p-id="1915" fill="#A2A2A2"></path></svg>