<?xml version="1.0" standalone="no"?><!DOCTYPE svg PUBLIC "-//W3C//DTD SVG 1.1//EN" "http://www.w3.org/Graphics/SVG/1.1/DTD/svg11.dtd"><svg t="1516777210149" class="icon" style="" viewBox="0 0 1024 1024" version="1.1" xmlns="http://www.w3.org/2000/svg" p-id="1041" xmlns:xlink="http://www.w3.org/1999/xlink" width="200" height="200"><defs><style type="text/css"></style></defs><path d="M662.635 460.563q0-87.1-61.912-149.013t-149.013-61.912-149.013 61.912-61.912 149.013 61.912 149.013 149.013 61.912 149.013-61.912 61.912-149.013zM903.69 852.278q0 24.482-17.891 42.373t-42.373 17.891q-25.424 0-42.373-17.891l-161.488-161.017q-84.276 58.381-187.853 58.381-67.326 0-128.768-26.13t-105.933-70.622-70.622-105.933-26.13-128.768 26.13-128.768 70.622-105.933 105.933-70.622 128.768-26.13 128.767 26.13 105.933 70.622 70.622 105.933 26.13 128.768q0 103.578-58.381 187.853l161.488 161.488q17.421 17.421 17.421 42.373z" p-id="1042" fill="#A2A2A2"></path></svg>