<?xml version="1.0" standalone="no"?><!DOCTYPE svg PUBLIC "-//W3C//DTD SVG 1.1//EN" "http://www.w3.org/Graphics/SVG/1.1/DTD/svg11.dtd"><svg t="1526874332115" class="icon" style="" viewBox="0 0 1024 1024" version="1.1" xmlns="http://www.w3.org/2000/svg" p-id="1893" xmlns:xlink="http://www.w3.org/1999/xlink" width="200" height="200"><defs><style type="text/css"></style></defs><path d="M504 0C374.4 0 257.6 48 166.4 126.4L49.6 9.6c-12.8-12.8-22.4-8-24 9.6L16 321.6c0 9.6 6.4 16 16 16l302.4-9.6c17.6 0 22.4-11.2 9.6-24l-108.8-108.8C307.2 132.8 401.6 96 504 96c230.4 0 416 185.6 416 416S734.4 928 504 928c-132.8 0-252.8-62.4-328-160l-70.4 65.6C200 950.4 342.4 1024 504 1024c283.2 0 512-228.8 512-512S787.2 0 504 0z" p-id="1894" fill="#A2A2A2"></path></svg>